<svg xmlns="http://www.w3.org/2000/svg" viewBox="0 0 64 64" fill="none">
  <defs>
    <linearGradient id="s" x1="18" y1="18" x2="46" y2="46" gradientUnits="userSpaceOnUse">
      <stop offset="0" stop-color="#38bdf8"/><stop offset="1" stop-color="#3f7bf6"/>
    </linearGradient>
    <linearGradient id="b" x1="32" y1="0" x2="32" y2="64" gradientUnits="userSpaceOnUse">
      <stop offset="0" stop-color="#0c1526"/><stop offset="1" stop-color="#16233f"/>
    </linearGradient>
  </defs>
  <rect width="64" height="64" rx="14" fill="url(#b)"/>
  <g stroke="#3a5488" stroke-width="2.1" stroke-linecap="round">
    <path d="M9 18v-5.5a3.5 3.5 0 0 1 3.5-3.5H18"/>
    <path d="M46 9h5.5A3.5 3.5 0 0 1 55 12.5V18"/>
    <path d="M55 46v5.5a3.5 3.5 0 0 1-3.5 3.5H46"/>
    <path d="M18 55h-5.5A3.5 3.5 0 0 1 9 51.5V46"/>
  </g>
  <path d="M22.5 21 V33.5 A9.5 9.5 0 0 0 41.5 33.5 V21" stroke="url(#s)" stroke-width="5.6" stroke-linecap="round"/>
  <g><circle cx="22.5" cy="21" r="4.4" fill="#38bdf8" opacity=".35"/><circle cx="22.5" cy="21" r="2.8" fill="#eaf7ff"/></g>
  <g><circle cx="41.5" cy="21" r="4.4" fill="#38bdf8" opacity=".35"/><circle cx="41.5" cy="21" r="2.8" fill="#eaf7ff"/></g>
  <g><circle cx="32" cy="43" r="4.4" fill="#38bdf8" opacity=".35"/><circle cx="32" cy="43" r="2.8" fill="#eaf7ff"/></g>
</svg>
